<svg width="182" height="13" viewBox="0 0 182 13" fill="none" xmlns="http://www.w3.org/2000/svg">
<path opacity="0.799544" d="M7.70188 8.632C7.55788 8.848 7.38188 9.052 7.17388 9.244C6.97388 9.436 6.73788 9.604 6.46588 9.748C6.20188 9.892 5.90588 10.004 5.57788 10.084C5.25788 10.172 4.90588 10.216 4.52188 10.216C3.88188 10.216 3.28988 10.104 2.74588 9.88C2.20188 9.656 1.73388 9.348 1.34188 8.956C0.949875 8.556 0.641875 8.084 0.417875 7.54C0.201875 6.996 0.093875 6.4 0.093875 5.752C0.093875 5.104 0.205875 4.508 0.429875 3.964C0.653875 3.42 0.961875 2.952 1.35388 2.56C1.75388 2.16 2.22188 1.848 2.75788 1.624C3.30188 1.4 3.88988 1.288 4.52188 1.288C4.83388 1.288 5.13788 1.32 5.43388 1.384C5.73788 1.448 6.02188 1.54 6.28588 1.66C6.54988 1.772 6.78988 1.912 7.00588 2.08C7.22188 2.24 7.40188 2.424 7.54588 2.632L6.82588 3.16C6.73788 3.024 6.61788 2.888 6.46588 2.752C6.32188 2.616 6.14988 2.496 5.94988 2.392C5.74988 2.288 5.52988 2.204 5.28988 2.14C5.05788 2.076 4.80588 2.044 4.53388 2.044C3.98188 2.044 3.48588 2.144 3.04588 2.344C2.61388 2.544 2.24588 2.816 1.94188 3.16C1.63788 3.496 1.40588 3.888 1.24588 4.336C1.08588 4.784 1.00587 5.256 1.00587 5.752C1.00587 6.248 1.08588 6.72 1.24588 7.168C1.41388 7.616 1.64988 8.012 1.95388 8.356C2.25788 8.692 2.62588 8.96 3.05788 9.16C3.49788 9.36 3.98988 9.46 4.53388 9.46C5.02188 9.46 5.48588 9.36 5.92588 9.16C6.36588 8.96 6.73388 8.64 7.02988 8.2L7.70188 8.632ZM14.578 7.192C14.578 7.616 14.502 8.008 14.35 8.368C14.206 8.728 14.002 9.04 13.738 9.304C13.474 9.568 13.158 9.776 12.79 9.928C12.422 10.072 12.018 10.144 11.578 10.144C11.146 10.144 10.746 10.072 10.378 9.928C10.01 9.776 9.69397 9.568 9.42997 9.304C9.16597 9.04 8.95797 8.728 8.80597 8.368C8.66197 8.008 8.58997 7.616 8.58997 7.192C8.58997 6.768 8.66197 6.376 8.80597 6.016C8.95797 5.656 9.16597 5.344 9.42997 5.08C9.69397 4.816 10.01 4.612 10.378 4.468C10.746 4.316 11.146 4.24 11.578 4.24C12.018 4.24 12.422 4.316 12.79 4.468C13.158 4.612 13.474 4.816 13.738 5.08C14.002 5.344 14.206 5.656 14.35 6.016C14.502 6.376 14.578 6.768 14.578 7.192ZM13.714 7.192C13.714 6.88 13.662 6.588 13.558 6.316C13.462 6.036 13.322 5.796 13.138 5.596C12.954 5.388 12.73 5.224 12.466 5.104C12.202 4.984 11.906 4.924 11.578 4.924C11.25 4.924 10.954 4.984 10.69 5.104C10.434 5.224 10.214 5.388 10.03 5.596C9.84597 5.796 9.70197 6.036 9.59797 6.316C9.50197 6.588 9.45397 6.88 9.45397 7.192C9.45397 7.504 9.50197 7.8 9.59797 8.08C9.70197 8.352 9.84597 8.592 10.03 8.8C10.214 9 10.434 9.16 10.69 9.28C10.954 9.392 11.25 9.448 11.578 9.448C11.906 9.448 12.202 9.392 12.466 9.28C12.73 9.16 12.954 9 13.138 8.8C13.322 8.592 13.462 8.352 13.558 8.08C13.662 7.8 13.714 7.504 13.714 7.192ZM17.1499 12.88H16.3339V4.384H17.1499V5.356H17.1859C17.4179 4.988 17.7259 4.712 18.1099 4.528C18.5019 4.336 18.8979 4.24 19.2979 4.24C19.7379 4.24 20.1339 4.316 20.4859 4.468C20.8459 4.62 21.1499 4.828 21.3979 5.092C21.6539 5.356 21.8499 5.668 21.9859 6.028C22.1299 6.388 22.2019 6.776 22.2019 7.192C22.2019 7.608 22.1299 7.996 21.9859 8.356C21.8499 8.716 21.6539 9.028 21.3979 9.292C21.1499 9.556 20.8459 9.764 20.4859 9.916C20.1339 10.068 19.7379 10.144 19.2979 10.144C18.8979 10.144 18.5019 10.052 18.1099 9.868C17.7259 9.676 17.4179 9.404 17.1859 9.052H17.1499V12.88ZM21.3379 7.192C21.3379 6.88 21.2899 6.588 21.1939 6.316C21.0979 6.036 20.9579 5.796 20.7739 5.596C20.5979 5.388 20.3779 5.224 20.1139 5.104C19.8499 4.984 19.5499 4.924 19.2139 4.924C18.9019 4.924 18.6139 4.984 18.3499 5.104C18.0859 5.216 17.8579 5.376 17.6659 5.584C17.4739 5.784 17.3219 6.024 17.2099 6.304C17.1059 6.576 17.0539 6.872 17.0539 7.192C17.0539 7.512 17.1059 7.812 17.2099 8.092C17.3219 8.364 17.4739 8.6 17.6659 8.8C17.8579 9 18.0859 9.16 18.3499 9.28C18.6139 9.392 18.9019 9.448 19.2139 9.448C19.5499 9.448 19.8499 9.392 20.1139 9.28C20.3779 9.16 20.5979 9 20.7739 8.8C20.9579 8.592 21.0979 8.352 21.1939 8.08C21.2899 7.8 21.3379 7.504 21.3379 7.192ZM25.8831 9.124H25.9071L27.6471 4.384H28.5351L25.7391 11.452C25.5711 11.884 25.3551 12.228 25.0911 12.484C24.8351 12.748 24.4631 12.88 23.9751 12.88C23.7271 12.88 23.4831 12.856 23.2431 12.808L23.3271 12.064C23.5191 12.128 23.7191 12.16 23.9271 12.16C24.2071 12.16 24.4271 12.072 24.5871 11.896C24.7471 11.728 24.8871 11.484 25.0071 11.164L25.4631 9.988L23.0631 4.384H23.9751L25.8831 9.124ZM29.8105 5.62C29.8105 5.468 29.8065 5.272 29.7985 5.032C29.7905 4.792 29.7785 4.576 29.7625 4.384H30.5425C30.5585 4.536 30.5705 4.704 30.5785 4.888C30.5865 5.072 30.5905 5.224 30.5905 5.344H30.6145C30.7745 5.016 31.0145 4.752 31.3345 4.552C31.6545 4.344 32.0145 4.24 32.4145 4.24C32.5185 4.24 32.6105 4.244 32.6905 4.252C32.7785 4.26 32.8665 4.276 32.9545 4.3L32.8465 5.068C32.7985 5.052 32.7185 5.036 32.6065 5.02C32.4945 5.004 32.3825 4.996 32.2705 4.996C32.0545 4.996 31.8465 5.036 31.6465 5.116C31.4465 5.196 31.2705 5.324 31.1185 5.5C30.9745 5.668 30.8545 5.888 30.7585 6.16C30.6705 6.424 30.6265 6.744 30.6265 7.12V10H29.8105V5.62ZM34.9627 10H34.1467V4.384H34.9627V10ZM35.1307 2.224C35.1307 2.392 35.0707 2.532 34.9507 2.644C34.8307 2.748 34.6987 2.8 34.5547 2.8C34.4107 2.8 34.2787 2.748 34.1587 2.644C34.0387 2.532 33.9787 2.392 33.9787 2.224C33.9787 2.056 34.0387 1.92 34.1587 1.816C34.2787 1.704 34.4107 1.648 34.5547 1.648C34.6987 1.648 34.8307 1.704 34.9507 1.816C35.0707 1.92 35.1307 2.056 35.1307 2.224ZM37.4347 11.128C37.6587 11.416 37.9627 11.66 38.3467 11.86C38.7387 12.06 39.1507 12.16 39.5827 12.16C39.9827 12.16 40.3227 12.1 40.6027 11.98C40.8827 11.868 41.1067 11.712 41.2747 11.512C41.4507 11.312 41.5787 11.076 41.6587 10.804C41.7387 10.54 41.7787 10.256 41.7787 9.952V8.896H41.7547C41.5387 9.248 41.2307 9.52 40.8307 9.712C40.4387 9.904 40.0387 10 39.6307 10C39.1907 10 38.7907 9.928 38.4307 9.784C38.0787 9.64 37.7747 9.444 37.5187 9.196C37.2707 8.94 37.0747 8.636 36.9307 8.284C36.7947 7.932 36.7267 7.552 36.7267 7.144C36.7267 6.744 36.7947 6.368 36.9307 6.016C37.0747 5.664 37.2707 5.356 37.5187 5.092C37.7747 4.828 38.0787 4.62 38.4307 4.468C38.7907 4.316 39.1907 4.24 39.6307 4.24C40.0387 4.24 40.4387 4.336 40.8307 4.528C41.2227 4.72 41.5307 4.996 41.7547 5.356H41.7787V4.384H42.5947V9.952C42.5947 10.256 42.5507 10.58 42.4627 10.924C42.3827 11.268 42.2267 11.584 41.9947 11.872C41.7707 12.16 41.4627 12.4 41.0707 12.592C40.6787 12.784 40.1707 12.88 39.5467 12.88C39.0267 12.88 38.5307 12.78 38.0587 12.58C37.5867 12.38 37.1827 12.104 36.8467 11.752L37.4347 11.128ZM37.5907 7.12C37.5907 7.416 37.6387 7.696 37.7347 7.96C37.8307 8.224 37.9667 8.456 38.1427 8.656C38.3267 8.856 38.5507 9.016 38.8147 9.136C39.0787 9.248 39.3787 9.304 39.7147 9.304C40.0267 9.304 40.3147 9.252 40.5787 9.148C40.8427 9.044 41.0707 8.896 41.2627 8.704C41.4547 8.512 41.6027 8.284 41.7067 8.02C41.8187 7.748 41.8747 7.448 41.8747 7.12C41.8747 6.824 41.8187 6.544 41.7067 6.28C41.6027 6.016 41.4547 5.784 41.2627 5.584C41.0707 5.384 40.8427 5.224 40.5787 5.104C40.3147 4.984 40.0267 4.924 39.7147 4.924C39.3787 4.924 39.0787 4.984 38.8147 5.104C38.5507 5.224 38.3267 5.384 38.1427 5.584C37.9667 5.784 37.8307 6.016 37.7347 6.28C37.6387 6.544 37.5907 6.824 37.5907 7.12ZM45.5807 5.308C45.7327 4.98 45.9847 4.72 46.3367 4.528C46.6887 4.336 47.0647 4.24 47.4647 4.24C48.1767 4.24 48.7087 4.452 49.0607 4.876C49.4207 5.3 49.6007 5.86 49.6007 6.556V10H48.7847V6.892C48.7847 6.596 48.7607 6.328 48.7127 6.088C48.6647 5.848 48.5807 5.644 48.4607 5.476C48.3487 5.3 48.1927 5.164 47.9927 5.068C47.8007 4.972 47.5567 4.924 47.2607 4.924C47.0447 4.924 46.8327 4.968 46.6247 5.056C46.4247 5.144 46.2447 5.28 46.0847 5.464C45.9247 5.64 45.7967 5.868 45.7007 6.148C45.6047 6.42 45.5567 6.744 45.5567 7.12V10H44.7407V0.927999H45.5567V5.308H45.5807ZM54.2448 5.068H52.6608V8.344C52.6608 8.552 52.6808 8.724 52.7208 8.86C52.7608 8.996 52.8168 9.104 52.8888 9.184C52.9688 9.256 53.0608 9.308 53.1648 9.34C53.2688 9.364 53.3808 9.376 53.5008 9.376C53.6128 9.376 53.7288 9.36 53.8488 9.328C53.9768 9.296 54.0968 9.252 54.2088 9.196L54.2448 9.904C54.1008 9.96 53.9488 10 53.7888 10.024C53.6368 10.056 53.4688 10.072 53.2848 10.072C53.1328 10.072 52.9728 10.052 52.8048 10.012C52.6368 9.972 52.4808 9.896 52.3368 9.784C52.1928 9.672 52.0728 9.52 51.9768 9.328C51.8888 9.136 51.8448 8.884 51.8448 8.572V5.068H50.6808V4.384H51.8448V2.8H52.6608V4.384H54.2448V5.068ZM64.4014 7.312C64.2094 7.608 63.9414 7.864 63.5974 8.08C63.2534 8.296 62.8414 8.404 62.3614 8.404C61.9694 8.404 61.6054 8.336 61.2694 8.2C60.9414 8.064 60.6574 7.876 60.4174 7.636C60.1774 7.396 59.9894 7.112 59.8534 6.784C59.7174 6.448 59.6494 6.084 59.6494 5.692C59.6494 5.3 59.7174 4.94 59.8534 4.612C59.9894 4.284 60.1774 4 60.4174 3.76C60.6574 3.52 60.9414 3.332 61.2694 3.196C61.6054 3.06 61.9694 2.992 62.3614 2.992C62.7454 2.992 63.1134 3.076 63.4654 3.244C63.8254 3.412 64.1054 3.644 64.3054 3.94L63.6814 4.42C63.5694 4.244 63.3934 4.084 63.1534 3.94C62.9214 3.788 62.6654 3.712 62.3854 3.712C62.0894 3.712 61.8214 3.768 61.5814 3.88C61.3494 3.984 61.1494 4.128 60.9814 4.312C60.8214 4.496 60.6974 4.708 60.6094 4.948C60.5214 5.18 60.4774 5.428 60.4774 5.692C60.4774 5.956 60.5174 6.208 60.5974 6.448C60.6854 6.688 60.8094 6.9 60.9694 7.084C61.1374 7.268 61.3374 7.416 61.5694 7.528C61.8014 7.632 62.0654 7.684 62.3614 7.684C62.6174 7.684 62.8694 7.624 63.1174 7.504C63.3654 7.384 63.5854 7.184 63.7774 6.904L64.4014 7.312ZM57.6814 5.764C57.6814 5.132 57.8014 4.544 58.0414 4C58.2814 3.448 58.6054 2.968 59.0134 2.56C59.4294 2.152 59.9134 1.832 60.4654 1.6C61.0254 1.36 61.6214 1.24 62.2534 1.24C62.8774 1.24 63.4654 1.36 64.0174 1.6C64.5694 1.832 65.0494 2.152 65.4574 2.56C65.8734 2.968 66.2014 3.448 66.4414 4C66.6814 4.544 66.8014 5.132 66.8014 5.764C66.8014 6.388 66.6814 6.976 66.4414 7.528C66.2014 8.072 65.8734 8.548 65.4574 8.956C65.0494 9.364 64.5694 9.684 64.0174 9.916C63.4654 10.148 62.8774 10.264 62.2534 10.264C61.6214 10.264 61.0254 10.148 60.4654 9.916C59.9134 9.684 59.4294 9.364 59.0134 8.956C58.6054 8.548 58.2814 8.072 58.0414 7.528C57.8014 6.976 57.6814 6.388 57.6814 5.764ZM58.4014 5.764C58.4014 6.292 58.5014 6.788 58.7014 7.252C58.9094 7.716 59.1854 8.124 59.5294 8.476C59.8814 8.82 60.2894 9.092 60.7534 9.292C61.2254 9.492 61.7254 9.592 62.2534 9.592C62.7814 9.592 63.2774 9.492 63.7414 9.292C64.2054 9.092 64.6094 8.82 64.9534 8.476C65.3054 8.124 65.5814 7.716 65.7814 7.252C65.9814 6.788 66.0814 6.292 66.0814 5.764C66.0814 5.236 65.9814 4.74 65.7814 4.276C65.5814 3.804 65.3054 3.396 64.9534 3.052C64.6094 2.7 64.2054 2.424 63.7414 2.224C63.2774 2.016 62.7814 1.912 62.2534 1.912C61.7254 1.912 61.2254 2.016 60.7534 2.224C60.2894 2.424 59.8814 2.7 59.5294 3.052C59.1854 3.396 58.9094 3.804 58.7014 4.276C58.5014 4.74 58.4014 5.236 58.4014 5.764ZM76.0871 10H70.6511V9.1L74.1311 5.584C74.2591 5.456 74.3831 5.32 74.5031 5.176C74.6311 5.024 74.7431 4.868 74.8391 4.708C74.9351 4.548 75.0111 4.38 75.0671 4.204C75.1231 4.02 75.1511 3.832 75.1511 3.64C75.1511 3.392 75.1071 3.168 75.0191 2.968C74.9311 2.768 74.8071 2.6 74.6471 2.464C74.4951 2.32 74.3151 2.212 74.1071 2.14C73.9071 2.06 73.6951 2.02 73.4711 2.02C73.0151 2.02 72.6311 2.164 72.3191 2.452C72.0071 2.732 71.8071 3.092 71.7191 3.532L70.8671 3.364C70.9231 3.068 71.0271 2.792 71.1791 2.536C71.3391 2.28 71.5311 2.06 71.7551 1.876C71.9871 1.692 72.2471 1.548 72.5351 1.444C72.8231 1.34 73.1351 1.288 73.4711 1.288C73.8151 1.288 74.1391 1.34 74.4431 1.444C74.7551 1.54 75.0271 1.688 75.2591 1.888C75.4911 2.08 75.6751 2.324 75.8111 2.62C75.9551 2.908 76.0271 3.244 76.0271 3.628C76.0271 3.9 75.9871 4.152 75.9071 4.384C75.8351 4.616 75.7351 4.836 75.6071 5.044C75.4871 5.252 75.3431 5.452 75.1751 5.644C75.0071 5.828 74.8311 6.012 74.6471 6.196L71.5871 9.232H76.0871V10ZM80.48 1.288C81.008 1.288 81.448 1.42 81.8 1.684C82.16 1.94 82.448 2.28 82.664 2.704C82.88 3.12 83.032 3.596 83.12 4.132C83.216 4.668 83.264 5.212 83.264 5.764C83.264 6.316 83.216 6.86 83.12 7.396C83.032 7.924 82.88 8.4 82.664 8.824C82.448 9.24 82.16 9.576 81.8 9.832C81.448 10.088 81.008 10.216 80.48 10.216C79.944 10.216 79.496 10.088 79.136 9.832C78.784 9.576 78.5 9.24 78.284 8.824C78.068 8.4 77.916 7.924 77.828 7.396C77.74 6.86 77.696 6.316 77.696 5.764C77.696 5.212 77.74 4.668 77.828 4.132C77.916 3.596 78.068 3.12 78.284 2.704C78.5 2.28 78.784 1.94 79.136 1.684C79.496 1.42 79.944 1.288 80.48 1.288ZM80.48 2.02C80.104 2.02 79.792 2.136 79.544 2.368C79.296 2.6 79.1 2.896 78.956 3.256C78.812 3.616 78.712 4.02 78.656 4.468C78.6 4.908 78.572 5.34 78.572 5.764C78.572 6.188 78.6 6.62 78.656 7.06C78.712 7.5 78.812 7.9 78.956 8.26C79.1 8.612 79.296 8.904 79.544 9.136C79.792 9.36 80.104 9.472 80.48 9.472C80.848 9.472 81.156 9.36 81.404 9.136C81.652 8.904 81.848 8.612 81.992 8.26C82.136 7.9 82.236 7.5 82.292 7.06C82.356 6.62 82.388 6.188 82.388 5.764C82.388 5.34 82.356 4.908 82.292 4.468C82.236 4.02 82.136 3.616 81.992 3.256C81.848 2.896 81.652 2.6 81.404 2.368C81.156 2.136 80.848 2.02 80.48 2.02ZM88.2569 10H87.3929V2.572L85.8569 3.88L85.3289 3.28L87.4889 1.504H88.2569V10ZM95.5179 5.5C95.9819 5.636 96.3659 5.904 96.6699 6.304C96.9739 6.704 97.1259 7.192 97.1259 7.768C97.1259 8.144 97.0499 8.484 96.8979 8.788C96.7539 9.084 96.5579 9.34 96.3099 9.556C96.0619 9.764 95.7699 9.924 95.4339 10.036C95.1059 10.156 94.7619 10.216 94.4019 10.216C94.0419 10.216 93.6939 10.156 93.3579 10.036C93.0299 9.924 92.7419 9.764 92.4939 9.556C92.2459 9.34 92.0459 9.084 91.8939 8.788C91.7499 8.484 91.6779 8.144 91.6779 7.768C91.6779 7.48 91.7179 7.216 91.7979 6.976C91.8779 6.728 91.9899 6.508 92.1339 6.316C92.2779 6.116 92.4459 5.948 92.6379 5.812C92.8379 5.676 93.0539 5.572 93.2859 5.5V5.476C93.0939 5.412 92.9179 5.32 92.7579 5.2C92.6059 5.072 92.4739 4.924 92.3619 4.756C92.2499 4.58 92.1619 4.392 92.0979 4.192C92.0339 3.984 92.0019 3.772 92.0019 3.556C92.0019 3.212 92.0659 2.9 92.1939 2.62C92.3219 2.34 92.4939 2.104 92.7099 1.912C92.9339 1.712 93.1899 1.56 93.4779 1.456C93.7659 1.344 94.0739 1.288 94.4019 1.288C94.7219 1.288 95.0259 1.344 95.3139 1.456C95.6099 1.56 95.8659 1.712 96.0819 1.912C96.3059 2.104 96.4819 2.34 96.6099 2.62C96.7379 2.9 96.8019 3.212 96.8019 3.556C96.8019 3.772 96.7699 3.984 96.7059 4.192C96.6419 4.392 96.5539 4.58 96.4419 4.756C96.3299 4.924 96.1939 5.072 96.0339 5.2C95.8819 5.32 95.7099 5.412 95.5179 5.476V5.5ZM92.8419 3.604C92.8419 3.828 92.8819 4.032 92.9619 4.216C93.0419 4.4 93.1539 4.56 93.2979 4.696C93.4419 4.832 93.6059 4.94 93.7899 5.02C93.9819 5.092 94.1859 5.128 94.4019 5.128C94.6179 5.128 94.8179 5.092 95.0019 5.02C95.1939 4.94 95.3619 4.832 95.5059 4.696C95.6499 4.56 95.7619 4.4 95.8419 4.216C95.9219 4.032 95.9619 3.828 95.9619 3.604C95.9619 3.38 95.9219 3.172 95.8419 2.98C95.7619 2.78 95.6499 2.612 95.5059 2.476C95.3699 2.332 95.2059 2.22 95.0139 2.14C94.8299 2.06 94.6259 2.02 94.4019 2.02C94.1779 2.02 93.9699 2.06 93.7779 2.14C93.5939 2.22 93.4299 2.332 93.2859 2.476C93.1499 2.612 93.0419 2.78 92.9619 2.98C92.8819 3.172 92.8419 3.38 92.8419 3.604ZM92.5419 7.672C92.5419 7.928 92.5859 8.168 92.6739 8.392C92.7619 8.616 92.8859 8.808 93.0459 8.968C93.2139 9.128 93.4099 9.256 93.6339 9.352C93.8659 9.44 94.1219 9.484 94.4019 9.484C94.6819 9.484 94.9339 9.44 95.1579 9.352C95.3899 9.256 95.5859 9.128 95.7459 8.968C95.9139 8.808 96.0419 8.616 96.1299 8.392C96.2179 8.168 96.2619 7.928 96.2619 7.672C96.2619 7.416 96.2179 7.18 96.1299 6.964C96.0419 6.748 95.9139 6.56 95.7459 6.4C95.5859 6.24 95.3899 6.116 95.1579 6.028C94.9339 5.94 94.6819 5.896 94.4019 5.896C94.1219 5.896 93.8659 5.94 93.6339 6.028C93.4099 6.116 93.2139 6.24 93.0459 6.4C92.8859 6.56 92.7619 6.748 92.6739 6.964C92.5859 7.18 92.5419 7.416 92.5419 7.672ZM102.875 9.232H106.835V10H102.011V1.504H102.875V9.232ZM111.62 6.376C111.62 5.888 111.492 5.524 111.236 5.284C110.98 5.044 110.608 4.924 110.12 4.924C109.784 4.924 109.472 4.984 109.184 5.104C108.896 5.224 108.652 5.384 108.452 5.584L107.996 5.044C108.228 4.812 108.532 4.62 108.908 4.468C109.292 4.316 109.724 4.24 110.204 4.24C110.508 4.24 110.792 4.284 111.056 4.372C111.32 4.452 111.552 4.576 111.752 4.744C111.952 4.912 112.108 5.124 112.22 5.38C112.332 5.636 112.388 5.936 112.388 6.28V8.74C112.388 8.956 112.396 9.18 112.412 9.412C112.428 9.644 112.452 9.84 112.484 10H111.752C111.728 9.864 111.708 9.716 111.692 9.556C111.676 9.396 111.668 9.24 111.668 9.088H111.644C111.388 9.464 111.096 9.736 110.768 9.904C110.448 10.064 110.06 10.144 109.604 10.144C109.388 10.144 109.164 10.112 108.932 10.048C108.708 9.992 108.5 9.896 108.308 9.76C108.124 9.624 107.968 9.448 107.84 9.232C107.72 9.016 107.66 8.752 107.66 8.44C107.66 8.008 107.768 7.668 107.984 7.42C108.208 7.164 108.504 6.976 108.872 6.856C109.24 6.728 109.66 6.648 110.132 6.616C110.612 6.576 111.108 6.556 111.62 6.556V6.376ZM111.38 7.192C111.044 7.192 110.704 7.208 110.36 7.24C110.024 7.264 109.716 7.32 109.436 7.408C109.164 7.488 108.94 7.608 108.764 7.768C108.588 7.928 108.5 8.14 108.5 8.404C108.5 8.604 108.536 8.772 108.608 8.908C108.688 9.044 108.792 9.156 108.92 9.244C109.048 9.324 109.188 9.384 109.34 9.424C109.5 9.456 109.66 9.472 109.82 9.472C110.108 9.472 110.364 9.424 110.588 9.328C110.812 9.224 111 9.088 111.152 8.92C111.304 8.744 111.42 8.544 111.5 8.32C111.58 8.096 111.62 7.86 111.62 7.612V7.192H111.38ZM117.478 5.716C117.358 5.484 117.174 5.296 116.926 5.152C116.686 5 116.41 4.924 116.098 4.924C115.954 4.924 115.81 4.94 115.666 4.972C115.522 5.004 115.394 5.056 115.282 5.128C115.17 5.2 115.078 5.292 115.006 5.404C114.942 5.516 114.91 5.648 114.91 5.8C114.91 6.064 115.018 6.268 115.234 6.412C115.45 6.548 115.79 6.664 116.254 6.76C116.918 6.896 117.406 7.096 117.718 7.36C118.038 7.616 118.198 7.964 118.198 8.404C118.198 8.724 118.134 8.996 118.006 9.22C117.886 9.436 117.726 9.616 117.526 9.76C117.326 9.896 117.098 9.992 116.842 10.048C116.594 10.112 116.342 10.144 116.086 10.144C115.662 10.144 115.25 10.056 114.85 9.88C114.45 9.704 114.122 9.428 113.866 9.052L114.514 8.572C114.658 8.82 114.87 9.028 115.15 9.196C115.43 9.364 115.738 9.448 116.074 9.448C116.25 9.448 116.418 9.432 116.578 9.4C116.738 9.368 116.878 9.312 116.998 9.232C117.118 9.152 117.214 9.052 117.286 8.932C117.358 8.804 117.394 8.648 117.394 8.464C117.394 8.168 117.25 7.948 116.962 7.804C116.682 7.652 116.274 7.512 115.738 7.384C115.57 7.344 115.39 7.296 115.198 7.24C115.014 7.176 114.842 7.088 114.682 6.976C114.522 6.856 114.39 6.708 114.286 6.532C114.182 6.356 114.13 6.136 114.13 5.872C114.13 5.584 114.186 5.34 114.298 5.14C114.41 4.932 114.558 4.764 114.742 4.636C114.934 4.5 115.15 4.4 115.39 4.336C115.63 4.272 115.878 4.24 116.134 4.24C116.526 4.24 116.906 4.328 117.274 4.504C117.642 4.68 117.918 4.928 118.102 5.248L117.478 5.716ZM122.354 5.068H120.77V8.344C120.77 8.552 120.79 8.724 120.83 8.86C120.87 8.996 120.926 9.104 120.998 9.184C121.078 9.256 121.17 9.308 121.274 9.34C121.378 9.364 121.49 9.376 121.61 9.376C121.722 9.376 121.838 9.36 121.958 9.328C122.086 9.296 122.206 9.252 122.318 9.196L122.354 9.904C122.21 9.96 122.058 10 121.898 10.024C121.746 10.056 121.578 10.072 121.394 10.072C121.242 10.072 121.082 10.052 120.914 10.012C120.746 9.972 120.59 9.896 120.446 9.784C120.302 9.672 120.182 9.52 120.086 9.328C119.998 9.136 119.954 8.884 119.954 8.572V5.068H118.79V4.384H119.954V2.8H120.77V4.384H122.354V5.068ZM123.679 1.504H126.499C127.027 1.504 127.555 1.592 128.083 1.768C128.619 1.944 129.099 2.212 129.523 2.572C129.955 2.924 130.303 3.368 130.567 3.904C130.831 4.432 130.963 5.048 130.963 5.752C130.963 6.464 130.831 7.084 130.567 7.612C130.303 8.14 129.955 8.584 129.523 8.944C129.099 9.296 128.619 9.56 128.083 9.736C127.555 9.912 127.027 10 126.499 10H123.679V1.504ZM124.543 9.232H126.259C126.899 9.232 127.455 9.132 127.927 8.932C128.407 8.732 128.803 8.472 129.115 8.152C129.427 7.824 129.659 7.452 129.811 7.036C129.971 6.62 130.051 6.192 130.051 5.752C130.051 5.312 129.971 4.884 129.811 4.468C129.659 4.052 129.427 3.684 129.115 3.364C128.803 3.036 128.407 2.772 127.927 2.572C127.455 2.372 126.899 2.272 126.259 2.272H124.543V9.232ZM138.293 7.192C138.293 7.616 138.217 8.008 138.065 8.368C137.921 8.728 137.717 9.04 137.453 9.304C137.189 9.568 136.873 9.776 136.505 9.928C136.137 10.072 135.733 10.144 135.293 10.144C134.861 10.144 134.461 10.072 134.093 9.928C133.725 9.776 133.409 9.568 133.145 9.304C132.881 9.04 132.673 8.728 132.521 8.368C132.377 8.008 132.305 7.616 132.305 7.192C132.305 6.768 132.377 6.376 132.521 6.016C132.673 5.656 132.881 5.344 133.145 5.08C133.409 4.816 133.725 4.612 134.093 4.468C134.461 4.316 134.861 4.24 135.293 4.24C135.733 4.24 136.137 4.316 136.505 4.468C136.873 4.612 137.189 4.816 137.453 5.08C137.717 5.344 137.921 5.656 138.065 6.016C138.217 6.376 138.293 6.768 138.293 7.192ZM137.429 7.192C137.429 6.88 137.377 6.588 137.273 6.316C137.177 6.036 137.037 5.796 136.853 5.596C136.669 5.388 136.445 5.224 136.181 5.104C135.917 4.984 135.621 4.924 135.293 4.924C134.965 4.924 134.669 4.984 134.405 5.104C134.149 5.224 133.929 5.388 133.745 5.596C133.561 5.796 133.417 6.036 133.313 6.316C133.217 6.588 133.169 6.88 133.169 7.192C133.169 7.504 133.217 7.8 133.313 8.08C133.417 8.352 133.561 8.592 133.745 8.8C133.929 9 134.149 9.16 134.405 9.28C134.669 9.392 134.965 9.448 135.293 9.448C135.621 9.448 135.917 9.392 136.181 9.28C136.445 9.16 136.669 9 136.853 8.8C137.037 8.592 137.177 8.352 137.273 8.08C137.377 7.8 137.429 7.504 137.429 7.192ZM145.629 7.192C145.629 7.616 145.553 8.008 145.401 8.368C145.257 8.728 145.053 9.04 144.789 9.304C144.525 9.568 144.209 9.776 143.841 9.928C143.473 10.072 143.069 10.144 142.629 10.144C142.197 10.144 141.797 10.072 141.429 9.928C141.061 9.776 140.745 9.568 140.481 9.304C140.217 9.04 140.009 8.728 139.857 8.368C139.713 8.008 139.641 7.616 139.641 7.192C139.641 6.768 139.713 6.376 139.857 6.016C140.009 5.656 140.217 5.344 140.481 5.08C140.745 4.816 141.061 4.612 141.429 4.468C141.797 4.316 142.197 4.24 142.629 4.24C143.069 4.24 143.473 4.316 143.841 4.468C144.209 4.612 144.525 4.816 144.789 5.08C145.053 5.344 145.257 5.656 145.401 6.016C145.553 6.376 145.629 6.768 145.629 7.192ZM144.765 7.192C144.765 6.88 144.713 6.588 144.609 6.316C144.513 6.036 144.373 5.796 144.189 5.596C144.005 5.388 143.781 5.224 143.517 5.104C143.253 4.984 142.957 4.924 142.629 4.924C142.301 4.924 142.005 4.984 141.741 5.104C141.485 5.224 141.265 5.388 141.081 5.596C140.897 5.796 140.753 6.036 140.649 6.316C140.553 6.588 140.505 6.88 140.505 7.192C140.505 7.504 140.553 7.8 140.649 8.08C140.753 8.352 140.897 8.592 141.081 8.8C141.265 9 141.485 9.16 141.741 9.28C142.005 9.392 142.301 9.448 142.629 9.448C142.957 9.448 143.253 9.392 143.517 9.28C143.781 9.16 144.005 9 144.189 8.8C144.373 8.592 144.513 8.352 144.609 8.08C144.713 7.8 144.765 7.504 144.765 7.192ZM147.385 5.62C147.385 5.468 147.381 5.272 147.373 5.032C147.365 4.792 147.353 4.576 147.337 4.384H148.117C148.133 4.536 148.145 4.704 148.153 4.888C148.161 5.072 148.165 5.224 148.165 5.344H148.189C148.349 5.016 148.589 4.752 148.909 4.552C149.229 4.344 149.589 4.24 149.989 4.24C150.093 4.24 150.185 4.244 150.265 4.252C150.353 4.26 150.441 4.276 150.529 4.3L150.421 5.068C150.373 5.052 150.293 5.036 150.181 5.02C150.069 5.004 149.957 4.996 149.845 4.996C149.629 4.996 149.421 5.036 149.221 5.116C149.021 5.196 148.845 5.324 148.693 5.5C148.549 5.668 148.429 5.888 148.333 6.16C148.245 6.424 148.201 6.744 148.201 7.12V10H147.385V5.62ZM152.263 9.424C152.263 9.592 152.203 9.744 152.083 9.88C151.963 10.008 151.807 10.072 151.615 10.072C151.423 10.072 151.267 10.008 151.147 9.88C151.027 9.744 150.967 9.592 150.967 9.424C150.967 9.256 151.027 9.108 151.147 8.98C151.267 8.844 151.423 8.776 151.615 8.776C151.807 8.776 151.963 8.844 152.083 8.98C152.203 9.108 152.263 9.256 152.263 9.424ZM158.416 2.872C158.232 2.616 157.996 2.412 157.708 2.26C157.42 2.1 157.072 2.02 156.664 2.02C156.456 2.02 156.244 2.052 156.028 2.116C155.812 2.18 155.616 2.28 155.44 2.416C155.264 2.544 155.12 2.708 155.008 2.908C154.904 3.108 154.852 3.344 154.852 3.616C154.852 3.888 154.904 4.112 155.008 4.288C155.112 4.464 155.248 4.616 155.416 4.744C155.592 4.864 155.788 4.964 156.004 5.044C156.228 5.124 156.46 5.204 156.7 5.284C156.996 5.38 157.292 5.484 157.588 5.596C157.892 5.708 158.164 5.856 158.404 6.04C158.644 6.216 158.84 6.444 158.992 6.724C159.144 6.996 159.22 7.344 159.22 7.768C159.22 8.192 159.136 8.56 158.968 8.872C158.808 9.176 158.596 9.428 158.332 9.628C158.076 9.828 157.78 9.976 157.444 10.072C157.116 10.168 156.784 10.216 156.448 10.216C156.192 10.216 155.936 10.188 155.68 10.132C155.424 10.084 155.18 10.008 154.948 9.904C154.716 9.8 154.5 9.668 154.3 9.508C154.1 9.348 153.924 9.164 153.772 8.956L154.516 8.404C154.7 8.708 154.956 8.964 155.284 9.172C155.62 9.372 156.012 9.472 156.46 9.472C156.676 9.472 156.896 9.44 157.12 9.376C157.344 9.304 157.544 9.2 157.72 9.064C157.904 8.92 158.052 8.748 158.164 8.548C158.284 8.34 158.344 8.1 158.344 7.828C158.344 7.532 158.284 7.288 158.164 7.096C158.052 6.896 157.9 6.732 157.708 6.604C157.516 6.468 157.296 6.356 157.048 6.268C156.8 6.18 156.54 6.092 156.268 6.004C155.988 5.916 155.712 5.816 155.44 5.704C155.168 5.592 154.924 5.448 154.708 5.272C154.492 5.088 154.316 4.864 154.18 4.6C154.052 4.336 153.988 4.012 153.988 3.628C153.988 3.22 154.068 2.868 154.228 2.572C154.396 2.276 154.612 2.032 154.876 1.84C155.14 1.648 155.432 1.508 155.752 1.42C156.072 1.332 156.388 1.288 156.7 1.288C157.276 1.288 157.768 1.392 158.176 1.6C158.584 1.8 158.892 2.04 159.1 2.32L158.416 2.872ZM163.487 5.068H161.903V8.344C161.903 8.552 161.923 8.724 161.963 8.86C162.003 8.996 162.059 9.104 162.131 9.184C162.211 9.256 162.303 9.308 162.407 9.34C162.511 9.364 162.623 9.376 162.743 9.376C162.855 9.376 162.971 9.36 163.091 9.328C163.219 9.296 163.339 9.252 163.451 9.196L163.487 9.904C163.343 9.96 163.191 10 163.031 10.024C162.879 10.056 162.711 10.072 162.527 10.072C162.375 10.072 162.215 10.052 162.047 10.012C161.879 9.972 161.723 9.896 161.579 9.784C161.435 9.672 161.315 9.52 161.219 9.328C161.131 9.136 161.087 8.884 161.087 8.572V5.068H159.923V4.384H161.087V2.8H161.903V4.384H163.487V5.068ZM170.344 7.192C170.344 7.616 170.268 8.008 170.116 8.368C169.972 8.728 169.768 9.04 169.504 9.304C169.24 9.568 168.924 9.776 168.556 9.928C168.188 10.072 167.784 10.144 167.344 10.144C166.912 10.144 166.512 10.072 166.144 9.928C165.776 9.776 165.46 9.568 165.196 9.304C164.932 9.04 164.724 8.728 164.572 8.368C164.428 8.008 164.356 7.616 164.356 7.192C164.356 6.768 164.428 6.376 164.572 6.016C164.724 5.656 164.932 5.344 165.196 5.08C165.46 4.816 165.776 4.612 166.144 4.468C166.512 4.316 166.912 4.24 167.344 4.24C167.784 4.24 168.188 4.316 168.556 4.468C168.924 4.612 169.24 4.816 169.504 5.08C169.768 5.344 169.972 5.656 170.116 6.016C170.268 6.376 170.344 6.768 170.344 7.192ZM169.48 7.192C169.48 6.88 169.428 6.588 169.324 6.316C169.228 6.036 169.088 5.796 168.904 5.596C168.72 5.388 168.496 5.224 168.232 5.104C167.968 4.984 167.672 4.924 167.344 4.924C167.016 4.924 166.72 4.984 166.456 5.104C166.2 5.224 165.98 5.388 165.796 5.596C165.612 5.796 165.468 6.036 165.364 6.316C165.268 6.588 165.22 6.88 165.22 7.192C165.22 7.504 165.268 7.8 165.364 8.08C165.468 8.352 165.612 8.592 165.796 8.8C165.98 9 166.2 9.16 166.456 9.28C166.72 9.392 167.016 9.448 167.344 9.448C167.672 9.448 167.968 9.392 168.232 9.28C168.496 9.16 168.72 9 168.904 8.8C169.088 8.592 169.228 8.352 169.324 8.08C169.428 7.8 169.48 7.504 169.48 7.192ZM172.1 5.62C172.1 5.468 172.096 5.272 172.088 5.032C172.08 4.792 172.068 4.576 172.052 4.384H172.832C172.848 4.536 172.86 4.704 172.868 4.888C172.876 5.072 172.88 5.224 172.88 5.344H172.904C173.064 5.016 173.304 4.752 173.624 4.552C173.944 4.344 174.304 4.24 174.704 4.24C174.808 4.24 174.9 4.244 174.98 4.252C175.068 4.26 175.156 4.276 175.244 4.3L175.136 5.068C175.088 5.052 175.008 5.036 174.896 5.02C174.784 5.004 174.672 4.996 174.56 4.996C174.344 4.996 174.136 5.036 173.936 5.116C173.736 5.196 173.56 5.324 173.408 5.5C173.264 5.668 173.144 5.888 173.048 6.16C172.96 6.424 172.916 6.744 172.916 7.12V10H172.1V5.62ZM180.497 6.76C180.473 6.232 180.301 5.796 179.981 5.452C179.669 5.1 179.221 4.924 178.637 4.924C178.365 4.924 178.113 4.976 177.881 5.08C177.649 5.176 177.445 5.312 177.269 5.488C177.093 5.656 176.953 5.852 176.849 6.076C176.745 6.292 176.685 6.52 176.669 6.76H180.497ZM181.325 7.024C181.325 7.08 181.325 7.14 181.325 7.204C181.325 7.268 181.321 7.336 181.313 7.408H176.657C176.665 7.688 176.721 7.952 176.825 8.2C176.929 8.448 177.073 8.664 177.257 8.848C177.441 9.032 177.657 9.18 177.905 9.292C178.153 9.396 178.421 9.448 178.709 9.448C179.133 9.448 179.497 9.352 179.801 9.16C180.113 8.96 180.349 8.732 180.509 8.476L181.121 8.956C180.785 9.38 180.413 9.684 180.005 9.868C179.605 10.052 179.173 10.144 178.709 10.144C178.293 10.144 177.905 10.072 177.545 9.928C177.193 9.776 176.889 9.568 176.633 9.304C176.377 9.04 176.173 8.728 176.021 8.368C175.877 8.008 175.805 7.616 175.805 7.192C175.805 6.768 175.877 6.376 176.021 6.016C176.165 5.656 176.365 5.344 176.621 5.08C176.877 4.816 177.177 4.612 177.521 4.468C177.865 4.316 178.237 4.24 178.637 4.24C179.077 4.24 179.465 4.316 179.801 4.468C180.137 4.612 180.417 4.812 180.641 5.068C180.865 5.316 181.033 5.608 181.145 5.944C181.265 6.28 181.325 6.64 181.325 7.024Z" fill="white"/>
</svg>
